<svg viewBox="0 0 396 396" xmlns="http://www.w3.org/2000/svg">
  <style>
    path {
      fill: #0a0a0a; /* Default to black for light mode tabs */
    }
    @media (prefers-color-scheme: dark) {
      path {
        fill: #f0f0f0; /* White for dark mode tabs */
      }
    }
  </style>
  <path d="M56.6777 216.057C46.9146 206.294 46.9146 190.465 56.6777 180.702L138.702 98.6776C148.465 88.9145 164.294 88.9145 174.057 98.6776C183.82 108.441 183.82 124.27 174.057 134.033L92.033 216.057C82.2699 225.82 66.4408 225.82 56.6777 216.057Z" fill-opacity="0.7"/>
  <path d="M56.6777 180.678C46.9146 190.441 46.9146 206.27 56.6777 216.033L138.702 298.057C148.465 307.821 164.294 307.821 174.057 298.057C183.82 288.294 183.82 272.465 174.057 262.702L92.033 180.678C82.2699 170.915 66.4408 170.915 56.6777 180.678Z" fill-opacity="0.8"/>
  <path d="M339.057 216.057C348.821 206.294 348.821 190.465 339.057 180.702L257.033 98.6776C247.27 88.9145 231.441 88.9145 221.678 98.6776C211.915 108.441 211.915 124.27 221.678 134.033L303.702 216.057C313.465 225.82 329.294 225.82 339.057 216.057Z" fill-opacity="0.7"/>
  <path d="M339.057 180.678C348.821 190.441 348.821 206.27 339.057 216.033L257.033 298.057C247.27 307.821 231.441 307.821 221.678 298.057C211.915 288.294 211.915 272.465 221.678 262.702L303.702 180.678C313.465 170.915 329.294 170.915 339.057 180.678Z" fill-opacity="0.8"/>
</svg>
